<svg width="22" height="22" viewBox="0 0 22 22" fill="none" xmlns="http://www.w3.org/2000/svg">
<path d="M18.3013 11.5806C18.3146 10.7459 18.5888 9.92756 19.0983 9.20161C19.6079 8.47566 20.3364 7.86572 21.2158 7.42854C20.6571 6.78338 19.9201 6.25244 19.0632 5.87789C18.2063 5.50334 17.2532 5.29549 16.2796 5.27086C14.2027 5.0946 12.1893 6.27569 11.1309 6.27569C10.0521 6.27569 8.42263 5.28836 6.66795 5.31755C5.53298 5.3472 4.42685 5.61405 3.45736 6.09211C2.48786 6.57017 1.68805 7.24313 1.13586 8.04542C-1.2561 11.3938 0.52809 16.3149 2.81939 19.0215C3.96578 20.3469 5.30557 21.8273 7.05867 21.7748C8.77418 21.7173 9.41489 20.8903 11.4857 20.8903C13.5372 20.8903 14.1383 21.7748 15.927 21.7414C17.7678 21.7173 18.9276 20.4102 20.0338 19.0723C20.8575 18.1279 21.4913 17.0842 21.9118 15.9798C20.8423 15.614 19.9296 15.0019 19.2876 14.2196C18.6455 13.4373 18.3025 12.5195 18.3013 11.5806Z" fill="white"/>
<path d="M14.9216 3.49062C15.9253 2.51641 16.4197 1.26423 16.3 0C14.7666 0.130221 13.3501 0.72278 12.3329 1.65961C11.8355 2.11728 11.4546 2.64971 11.2119 3.22648C10.9692 3.80325 10.8694 4.41304 10.9184 5.021C11.6853 5.02739 12.4441 4.89297 13.1375 4.62789C13.831 4.3628 14.441 3.97395 14.9216 3.49062Z" fill="white"/>
</svg>
